# Max2Obj Version 4.0 Mar 10th, 2001
#
# object obj对象01 to come ...
#
v  3.947398 67.226227 44.151974
v  0.000006 67.226227 49.262680
v  -3.947387 67.226227 44.151974
v  9.324651 0.634878 44.151974
v  0.000002 0.634879 49.262680
v  -9.324651 0.634879 44.151974
v  6.086089 -18.001728 44.151974
v  0.000000 -18.001728 49.262688
v  -6.086090 -18.001728 44.151974
v  4.662325 0.634879 46.707329
v  1.973703 67.226227 46.707325
v  3.043044 -18.001728 46.707329
v  -4.662324 0.634879 46.707329
v  -1.973689 67.226227 46.707325
v  -3.043044 -18.001728 46.707329
# 15 vertices

vt  0.248876 0.690788 0.000000
vt  0.248817 0.696808 0.000000
vt  0.066151 0.695020 0.000000
vt  0.065985 0.683960 0.000000
vt  0.248812 0.702183 0.000000
vt  0.249043 0.707553 0.000000
vt  0.066551 0.717252 0.000000
vt  0.066318 0.706156 0.000000
vt  0.014791 0.691450 0.000000
vt  0.065983 0.683810 0.000000
vt  0.015083 0.699447 0.000000
vt  0.015374 0.715482 0.000000
vt  0.015302 0.707446 0.000000
vt  0.249220 0.713567 0.000000
vt  0.066881 0.728383 0.000000
vt  0.015451 0.723481 0.000000
# 16 texture vertices

vn  0.558198 0.036660 0.701302
vn  -0.558198 0.036660 0.701302
vn  -0.309316 0.040629 0.917998
vn  0.309316 0.040629 0.917998
vn  -0.309571 0.000000 0.918756
vn  -0.309316 0.040629 0.917998
vn  0.308393 -0.087172 0.915259
vn  -0.431177 0.000000 0.835217
vn  -0.308393 -0.087172 0.915259
vn  0.558198 0.036660 0.701302
vn  0.558198 0.036660 0.701302
vn  0.430378 -0.060827 0.833671
vn  -0.558198 0.036660 0.701302
vn  -0.558198 0.036660 0.701302
vn  -0.309276 -0.043711 0.917878
# 15 vertex normals

g obj对象01
s 0
f 1/1/1 11/2/11 10/3/10
f 10/3/10 4/4/4 1/1/1
f 2/5/2 14/6/14 13/7/13
f 13/7/13 5/8/5 2/5/2
f 7/9/7 4/10/4 10/3/10
f 10/3/10 12/11/12 7/9/7
f 5/8/5 13/7/13 15/12/15
f 15/12/15 8/13/8 5/8/5
f 2/5/2 5/8/5 10/3/10
f 10/3/10 11/2/11 2/5/2
f 5/8/5 8/13/8 12/11/12
f 12/11/12 10/3/10 5/8/5
f 3/14/3 6/15/6 13/7/13
f 13/7/13 14/6/14 3/14/3
f 13/7/13 6/15/6 9/16/9
f 9/16/9 15/12/15 13/7/13
# 16 faces

g
