# 3ds Max Wavefront OBJ Exporter v0.94b - (c)2007 guruware
# File Created: 04.09.2013 19:09:11

mtllib am.mtl

#
# object Rectangle01
#

v  16.0000 14.0000 16.0000
v  -16.0000 14.0000 16.0000
v  -16.0000 -14.0000 16.0000
v  16.0000 -14.0000 16.0000
# 4 vertices

vn 0.0000 0.0000 1.0000
# 1 vertex normals

vt 0.9995 0.9995 0.5000
vt 0.0005 0.9995 0.5000
vt 0.0005 0.0005 0.5000
vt 0.9995 0.0005 0.5000
# 4 texture coords

g Rectangle01
usemtl 03___Default
s 1
f 1/1/1 2/2/1 3/3/1 4/4/1 
# 1 polygons

