# 3ds Max Wavefront OBJ Exporter v0.97b - (c)2007 guruware
# File Created: 03.03.2014 19:00:28

mtllib ½ºÆ¬.mtl

#
# object Object009
#

v  138.9093 -12.1530 -0.0000
v  137.3215 24.2135 -0.0000
v  126.3755 58.9299 -0.0000
v  106.8172 89.6303 -0.0000
v  79.9795 114.2225 0.0000
v  47.6913 131.0307 0.0000
v  12.1530 138.9093 0.0000
v  -24.2135 137.3216 0.0000
v  -58.9299 126.3755 0.0000
v  -89.6303 106.8172 -0.0000
v  -114.2225 79.9795 -0.0000
v  -131.0307 47.6913 -0.0000
v  -138.9093 12.1531 -0.0000
v  -137.3216 -24.2134 -0.0000
v  -126.3755 -58.9298 -0.0000
v  -106.8173 -89.6302 0.0000
v  -79.9795 -114.2225 -0.0000
v  -47.6913 -131.0307 -0.0000
v  -12.1531 -138.9093 -0.0000
v  24.2134 -137.3216 -0.0000
v  58.9298 -126.3756 -0.0000
v  89.6302 -106.8173 0.0000
v  114.2225 -79.9795 -0.0000
v  131.0307 -47.6914 -0.0000
# 24 vertices

vn 0.0000 0.0000 1.0000
vn 0.0000 0.0000 1.0000
vn 0.0000 0.0000 1.0000
vn 0.0000 0.0000 1.0000
vn -0.0000 0.0000 1.0000
vn 0.0000 0.0000 1.0000
vn -0.0000 0.0000 1.0000
vn -0.0000 0.0000 1.0000
vn -0.0000 0.0000 1.0000
vn -0.0000 0.0000 1.0000
vn -0.0000 0.0000 1.0000
vn 0.0000 0.0000 1.0000
vn -0.0000 -0.0000 1.0000
vn -0.0000 0.0000 1.0000
vn 0.0000 0.0000 1.0000
vn 0.0000 -0.0000 1.0000
vn -0.0000 -0.0000 1.0000
vn -0.0000 -0.0000 1.0000
vn 0.0000 -0.0000 1.0000
vn -0.0000 -0.0000 1.0000
vn 0.0000 -0.0000 1.0000
vn -0.0000 -0.0000 1.0000
vn -0.0000 -0.0000 1.0000
vn -0.0000 -0.0000 1.0000
vn -0.0000 -0.0000 1.0000
vn 0.0000 -0.0000 1.0000
vn -0.0000 -0.0000 1.0000
vn 0.0000 -0.0000 1.0000
vn -0.0000 -0.0000 1.0000
vn -0.0000 -0.0000 1.0000
vn 0.0000 -0.0000 1.0000
vn -0.0000 -0.0000 1.0000
vn 0.0000 -0.0000 1.0000
vn -0.0000 -0.0000 1.0000
vn -0.0000 -0.0000 1.0000
vn -0.0000 -0.0000 1.0000
vn 0.0000 0.0000 1.0000
vn 0.0000 -0.0000 1.0000
vn -0.0000 -0.0000 1.0000
vn 0.0000 0.0000 1.0000
vn 0.0000 0.0000 1.0000
vn 0.0000 0.0000 1.0000
vn 0.0000 0.0000 1.0000
vn 0.0000 0.0000 1.0000
# 44 vertex normals

vt 0.4402 0.2057 0.0000
vt 0.4403 0.2479 0.0000
vt 0.4295 0.2887 0.0000
vt 0.4292 0.1650 0.0000
vt 0.1308 0.2895 0.0000
vt 0.1197 0.2487 0.0000
vt 0.1196 0.2065 0.0000
vt 0.1304 0.1657 0.0000
vt 0.1520 0.3260 0.0000
vt 0.1514 0.1291 0.0000
vt 0.1819 0.3557 0.0000
vt 0.1812 0.0992 0.0000
vt 0.2185 0.3768 0.0000
vt 0.2177 0.0780 0.0000
vt 0.2593 0.3876 0.0000
vt 0.2584 0.0670 0.0000
vt 0.3015 0.3875 0.0000
vt 0.3006 0.0669 0.0000
vt 0.3422 0.3764 0.0000
vt 0.3414 0.0777 0.0000
vt 0.3787 0.3552 0.0000
vt 0.3780 0.0987 0.0000
vt 0.4085 0.3253 0.0000
vt 0.4080 0.1285 0.0000
# 24 texture coords

g Object009
usemtl Material__0
s 1
f 2/2/1 3/3/2 24/4/3 1/1/4 
f 12/5/5 13/6/6 14/7/7 15/8/8 
f 11/9/9 12/5/10 15/8/11 16/10/12 
f 10/11/13 11/9/14 16/10/15 17/12/16 
f 9/13/17 10/11/18 17/12/19 18/14/20 
f 8/15/21 9/13/22 18/14/23 19/16/24 
f 7/17/25 8/15/26 19/16/27 20/18/28 
f 6/19/29 7/17/30 20/18/31 21/20/32 
f 5/21/33 6/19/34 21/20/35 22/22/36 
f 4/23/37 5/21/38 22/22/39 23/24/40 
f 3/3/41 4/23/42 23/24/43 24/4/44 
# 11 polygons

