# 3ds Max Wavefront OBJ Exporter v0.97b - (c)2007 guruware
# File Created: 19.03.2014 14:33:24

mtllib 00001.mtl

#
# object Object016
#

v  -1.7649 0.0000 12.2773
v  1.7649 0.0000 12.2773
v  -1.7649 0.0000 -12.2773
v  1.7649 0.0000 -12.2773
# 4 vertices

vn 0.0000 -1.0000 -0.0000
vn 0.0000 -1.0000 -0.0000
vn 0.0000 -1.0000 -0.0000
vn 0.0000 -1.0000 -0.0000
# 4 vertex normals

vt 0.5633 0.0168 0.0000
vt 0.5633 0.0124 0.0000
vt 0.5942 0.0124 0.0000
vt 0.5942 0.0168 0.0000
# 4 texture coords

g Object016
usemtl tex_musicBox
s 1
f 1/4/1 3/1/2 4/2/3 2/3/4 
# 1 polygons

