# 3ds Max Wavefront OBJ Exporter v0.97b - (c)2007 guruware
# File Created: 06.03.2014 10:03:18

mtllib 01.mtl

#
# object Plane007
#

v  -183.0000 -27.0000 -0.0000
v  183.0000 -27.0000 -0.0000
v  -183.0000 27.0000 0.0000
v  183.0000 27.0000 0.0000
# 4 vertices

vn 0.0000 -0.0000 1.0000
vn 0.0000 -0.0000 1.0000
vn 0.0000 -0.0000 1.0000
vn 0.0000 -0.0000 1.0000
# 4 vertex normals

vt 0.0000 0.0000 0.0000
vt 1.0000 0.0000 0.0000
vt 0.0000 1.0000 0.0000
vt 1.0000 1.0000 0.0000
# 4 texture coords

g Plane007
usemtl Material__38
s 1
f 3/3/1 1/1/2 2/2/3 4/4/4 
# 1 polygons

