# 3ds Max Wavefront OBJ Exporter v0.97b - (c)2007 guruware
# File Created: 06.03.2014 10:03:31

mtllib 001.mtl

#
# object Plane009
#

v  -9.7500 -3.8000 -0.0000
v  9.7500 -3.8000 -0.0000
v  -9.7500 3.8000 0.0000
v  9.7500 3.8000 0.0000
# 4 vertices

vn 0.0000 -0.0000 1.0000
vn 0.0000 -0.0000 1.0000
vn 0.0000 -0.0000 1.0000
vn 0.0000 -0.0000 1.0000
# 4 vertex normals

vt 0.0000 0.0000 0.0000
vt 1.0000 0.0000 0.0000
vt 0.0000 1.0000 0.0000
vt 1.0000 1.0000 0.0000
# 4 texture coords

g Plane009
usemtl wire_224198087
s 1
f 3/3/1 1/1/2 2/2/3 4/4/4 
# 1 polygons

