# Max2Obj Version 4.0 Mar 10th, 2001
#
# object default to come ...
#
v  -23.452829 -11.112083 22.937851
v  23.452829 -11.112083 22.937851
v  -23.452829 108.653389 22.937851
v  23.452829 108.653389 22.937851
# 4 vertices

vt  0.104097 0.748973 0.000000
vt  0.002431 0.748973 0.000000
vt  0.002431 0.501691 0.000000
vt  0.104097 0.501691 0.000000
# 4 texture vertices

vn  0.000000 0.000000 1.500000
vn  0.000000 0.000000 1.500000
vn  0.000000 0.000000 1.500000
vn  0.000000 0.000000 1.500000
# 4 vertex normals

g default
s 16
f 1/3/1 2/4/2 4/1/4 3/2/3
# 1 faces

g
