# Max2Obj Version 4.0 Mar 10th, 2001
#
# object default to come ...
#
v  -28.151577 17.258476 65.084175
v  -39.527645 17.802662 58.141846
v  -15.635908 16.839317 69.676476
v  -2.461620 16.561241 71.742317
v  10.865027 16.435009 71.202255
v  23.831881 16.465408 68.077072
v  35.940632 16.651306 62.486855
v  46.725952 16.985538 54.646454
v  -28.575575 -12.688213 63.864197
v  -39.951645 -12.144039 56.921867
v  -16.059910 -13.107391 68.456505
v  -2.885623 -13.385450 70.522331
v  10.441019 -13.511699 69.982254
v  23.407879 -13.481313 66.857086
v  35.516621 -13.295427 61.266865
v  46.301952 -12.961179 53.426472
# 16 vertices

vt  0.149068 0.995198 0.000000
vt  0.007908 0.995198 0.000000
vt  0.008393 0.010067 0.000000
vt  0.149566 0.010068 0.000000
vt  0.290227 0.995052 0.000000
vt  0.290740 0.009921 0.000000
vt  0.431403 0.994725 0.000000
vt  0.431913 0.009594 0.000000
vt  0.572578 0.994195 0.000000
vt  0.573085 0.009065 0.000000
vt  0.713749 0.993453 0.000000
vt  0.714257 0.008322 0.000000
vt  0.854921 0.992493 0.000000
vt  0.855427 0.007362 0.000000
vt  0.996090 0.991319 0.000000
vt  0.996596 0.006188 0.000000
# 16 texture vertices

vn  -0.464860 -0.029467 0.884894
vn  -0.521677 -0.027351 0.852704
vn  -0.283247 -0.035033 0.958407
vn  -0.090756 -0.039254 0.995099
vn  0.105223 -0.041966 0.993563
vn  0.297164 -0.043066 0.953855
vn  0.477698 -0.042511 0.877495
vn  0.588337 -0.041229 0.807564
vn  -0.405802 -0.031466 0.913419
vn  -0.521677 -0.027352 0.852704
vn  -0.219751 -0.036603 0.974869
vn  -0.025258 -0.040335 0.998867
vn  0.170206 -0.042517 0.984491
vn  0.359139 -0.043065 0.932290
vn  0.534281 -0.041959 0.844265
vn  0.588336 -0.041229 0.807564
# 16 vertex normals

g default
s 65536
f 1/1/1 2/2/2 10/3/10
f 10/3/10 9/4/9 1/1/1
f 3/5/3 1/1/1 9/4/9
f 9/4/9 11/6/11 3/5/3
f 4/7/4 3/5/3 11/6/11
f 11/6/11 12/8/12 4/7/4
f 5/9/5 4/7/4 12/8/12
f 12/8/12 13/10/13 5/9/5
f 6/11/6 5/9/5 13/10/13
f 13/10/13 14/12/14 6/11/6
f 7/13/7 6/11/6 14/12/14
f 14/12/14 15/14/15 7/13/7
f 8/15/8 7/13/7 15/14/15
f 15/14/15 16/16/16 8/15/8
# 14 faces

g
