# Max2Obj Version 4.0 Mar 10th, 2001
#
# object default to come ...
#
v  51.428288 -80.715096 1.247558
v  48.408474 -80.647934 -15.878503
v  39.713280 -80.588875 -30.938908
v  26.391464 -80.545044 -42.117146
v  10.049841 -80.521721 -48.064972
v  -7.340552 -80.521721 -48.064960
v  -23.682171 -80.545044 -42.117146
v  -37.003983 -80.588875 -30.938908
v  -45.699169 -80.647934 -15.878509
v  -48.718987 -80.715096 1.247550
v  -45.699181 -80.782249 18.373608
v  -37.003994 -80.841316 33.434013
v  -23.682182 -80.885139 44.612259
v  -7.340568 -80.908463 50.560081
v  10.049821 -80.908463 50.560089
v  26.391443 -80.885139 44.612274
v  39.713257 -80.841316 33.434044
v  48.408466 -80.782249 18.373650
v  1.354650 -80.715096 1.247558
# 19 vertices

vt  0.500000 1.000000 0.250000
vt  0.328990 0.969846 0.250000
vt  0.500000 0.500000 0.250000
vt  0.328990 0.969846 0.250000
vt  0.178606 0.883022 0.250000
vt  0.178606 0.883022 0.250000
vt  0.066987 0.750000 0.250000
vt  0.066987 0.750000 0.250000
vt  0.007596 0.586824 0.250000
vt  0.007596 0.586824 0.250000
vt  0.007596 0.413176 0.250000
vt  0.007596 0.413176 0.250000
vt  0.066987 0.250000 0.250000
vt  0.066987 0.250000 0.250000
vt  0.178606 0.116978 0.250000
vt  0.178606 0.116978 0.250000
vt  0.328990 0.030154 0.250000
vt  0.328990 0.030154 0.250000
vt  0.500000 0.000000 0.250000
vt  0.500000 0.000000 0.250000
vt  0.671010 0.030154 0.250000
vt  0.671010 0.030154 0.250000
vt  0.821394 0.116978 0.250000
vt  0.821394 0.116978 0.250000
vt  0.933013 0.250000 0.250000
vt  0.933013 0.250000 0.250000
vt  0.992404 0.413176 0.250000
vt  0.992404 0.413176 0.250000
vt  0.992404 0.586824 0.250000
vt  0.992404 0.586824 0.250000
vt  0.933013 0.750000 0.250000
vt  0.933013 0.750000 0.250000
vt  0.821394 0.883022 0.250000
vt  0.821394 0.883022 0.250000
vt  0.671010 0.969846 0.250000
vt  0.671010 0.969846 0.250000
vt  0.500000 1.000000 0.250000
# 37 texture vertices

vn  0.000000 0.399997 0.001569
vn  -0.000000 0.399997 0.001569
vn  0.000000 0.399997 0.001569
vn  0.000000 0.399997 0.001569
vn  -0.000000 0.399997 0.001569
vn  0.000000 0.399997 0.001569
vn  -0.000000 0.399997 0.001569
vn  -0.000000 0.399997 0.001569
vn  0.000000 0.399997 0.001569
vn  -0.000000 0.399997 0.001568
vn  0.000000 0.399997 0.001569
vn  -0.000000 0.399997 0.001569
vn  -0.000000 0.399997 0.001568
vn  -0.000000 0.399997 0.001568
vn  -0.000000 0.399997 0.001568
vn  0.000000 0.399997 0.001568
vn  0.000000 0.399997 0.001568
vn  0.000000 0.399997 0.001569
vn  0.000000 0.399997 0.001569
# 19 vertex normals

g default
s 4
f 1/1/1 2/2/2 19/3/19
f 2/4/2 3/5/3 19/3/19
f 3/6/3 4/7/4 19/3/19
f 4/8/4 5/9/5 19/3/19
f 5/10/5 6/11/6 19/3/19
f 6/12/6 7/13/7 19/3/19
f 7/14/7 8/15/8 19/3/19
f 8/16/8 9/17/9 19/3/19
f 9/18/9 10/19/10 19/3/19
f 10/20/10 11/21/11 19/3/19
f 11/22/11 12/23/12 19/3/19
f 12/24/12 13/25/13 19/3/19
f 13/26/13 14/27/14 19/3/19
f 14/28/14 15/29/15 19/3/19
f 15/30/15 16/31/16 19/3/19
f 16/32/16 17/33/17 19/3/19
f 17/34/17 18/35/18 19/3/19
f 18/36/18 1/37/1 19/3/19
# 18 faces

g
