# Max2Obj Version 4.0 Mar 10th, 2001
#
# object default to come ...
#
v  -207.425171 -7.754686 3.317692
v  30.968025 -7.754686 41.475700
v  -207.425171 11.364767 3.317692
v  30.968025 11.364767 41.475700
# 4 vertices

vt  0.000000 0.000000 0.000000
vt  1.000000 0.000000 0.000000
vt  0.000000 0.000000 0.000000
vt  1.000000 0.000000 0.000000
vt  0.000000 0.000000 0.000000
vt  1.000000 0.000000 0.000000
vt  0.000000 1.000000 0.000000
vt  1.000000 1.000000 0.000000
# 8 texture vertices

vn  -0.096818 -0.000000 0.991242
vn  -0.096818 -0.000000 0.991242
vn  -0.096818 -0.000000 0.991242
vn  -0.096818 -0.000000 0.991242
# 4 vertex normals

g default
s 1
f 1/5/1 2/6/2 4/8/4 3/7/3
# 1 faces

g
