# 3ds Max Wavefront OBJ Exporter v0.97b - (c)2007 guruware
# File Created: 09.06.2014 10:22:11

mtllib mod_year.mtl

#
# object Plane016
#

v  -48.0000 -17.5000 -0.0000
v  48.0000 -17.5000 -0.0000
v  -48.0000 17.5000 0.0000
v  48.0000 17.5000 0.0000
# 4 vertices

vn 0.0000 -0.0000 1.0000
vn 0.0000 -0.0000 1.0000
vn 0.0000 -0.0000 1.0000
vn 0.0000 -0.0000 1.0000
# 4 vertex normals

vt 0.0000 0.0000 0.0000
vt 1.0000 0.0000 0.0000
vt 0.0000 1.0000 0.0000
vt 1.0000 1.0000 0.0000
# 4 texture coords

g Plane016
usemtl wire_000000000
s 1
f 3/3/1 1/1/2 2/2/3 4/4/4 
# 1 polygons

