# Max2Obj Version 4.0 Mar 10th, 2001
#
# object objPlane023 to come ...
#
v  -315.500000 -354.500000 -0.000000
v  315.500000 -354.500000 -0.000000
v  -315.500000 354.500000 -0.000000
v  315.500000 354.500000 -0.000000
# 4 vertices

vt  0.000000 0.000000 0.000000
vt  1.000000 0.000000 0.000000
vt  1.000000 1.000000 0.000000
vt  0.000000 1.000000 0.000000
# 4 texture vertices

vn  0.000000 0.000000 1.000000
vn  0.000000 0.000000 1.000000
vn  0.000000 0.000000 1.000000
vn  0.000000 0.000000 1.000000
# 4 vertex normals

g objPlane023
s 2
f 1/1/1 2/2/2 4/3/4
f 1/1/1 4/3/4 3/4/3
# 2 faces

g
