# Max2Obj Version 4.0 Mar 10th, 2001
#
# object Material__2 to come ...
#
v  -9.765023 -23.598854 14.522353
v  9.765021 -23.598854 14.522354
v  -9.765023 123.327255 14.522360
v  9.765021 123.327255 14.522361
# 4 vertices

vt  0.905245 0.781962 0.000000
vt  0.905245 0.828730 0.000000
vt  0.553400 0.828730 0.000000
vt  0.553400 0.781962 0.000000
# 4 texture vertices

vn  -0.000000 -0.000000 1.000000
vn  -0.000000 -0.000000 1.000000
vn  -0.000000 -0.000000 1.000000
vn  -0.000000 -0.000000 1.000000
# 4 vertex normals

g Material__2
s 2
f 4/1/4 3/2/3 1/3/1 2/4/2
# 1 faces

g
