# Max2Obj Version 4.0 Mar 10th, 2001
#
# object Material__2 to come ...
#
v  -9.765023 -23.598854 10.946778
v  9.765021 -23.598854 10.946779
v  -9.765023 128.150269 10.946784
v  9.765021 128.150269 10.946785
# 4 vertices

vt  0.895892 0.041221 0.000000
vt  0.895892 0.087989 0.000000
vt  0.544047 0.087989 0.000000
vt  0.544047 0.041221 0.000000
# 4 texture vertices

vn  -0.000000 -0.000000 1.000000
vn  -0.000000 -0.000000 1.000000
vn  -0.000000 -0.000000 1.000000
vn  -0.000000 -0.000000 1.000000
# 4 vertex normals

g Material__2
s 2
f 4/1/4 3/2/3 1/3/1 2/4/2
# 1 faces

g
