# Max2Obj Version 4.0 Mar 10th, 2001
#
# object Material__2 to come ...
#
v  -6.493507 -23.598846 24.166950
v  6.493505 -23.598846 24.166950
v  -6.493507 148.349182 24.166958
v  6.493505 148.349182 24.166958
# 4 vertices

vt  0.964489 0.910971 0.000000
vt  0.964489 0.942071 0.000000
vt  0.552725 0.942071 0.000000
vt  0.552725 0.910971 0.000000
# 4 texture vertices

vn  0.000000 -0.000000 1.000000
vn  0.000000 -0.000000 1.000000
vn  0.000000 -0.000000 1.000000
vn  0.000000 -0.000000 1.000000
# 4 vertex normals

g Material__2
s 2
f 4/1/4 3/2/3 1/3/1 2/4/2
# 1 faces

g
