# Max2Obj Version 4.0 Mar 10th, 2001
#
# object objobj对象03 to come ...
#
v  6.932096 1.222316 60.738953
v  6.095982 3.519518 60.738953
v  4.524605 5.392214 60.738949
v  2.407491 6.614529 60.738953
v  -0.000001 7.039034 60.738953
v  -2.407493 6.614527 60.738953
v  -4.524605 5.392212 60.738953
v  -6.095983 3.519518 60.738953
v  -6.932096 1.222316 60.738953
v  -6.932095 -1.222314 60.738953
v  -6.095983 -3.519516 60.738953
v  -4.524606 -5.392211 60.738953
v  -2.407494 -6.614527 60.738953
v  -0.000003 -7.039035 60.738953
v  2.407489 -6.614531 60.738953
v  4.524601 -5.392217 60.738953
v  6.095981 -3.519520 60.738953
v  6.932094 -1.222319 60.738949
v  -0.000001 -0.000002 64.453621
v  2.407491 90.988701 60.738953
v  -0.000007 91.413200 60.738956
v  -2.407489 90.988663 60.738956
v  -2.407494 -20.563911 60.738953
v  -0.000002 -20.988420 60.738953
v  2.407489 -20.563913 60.738953
# 25 vertices

vt  0.379220 0.951492 0.000000
vt  0.371520 0.948689 0.000000
vt  0.383318 0.928254 0.000000
vt  0.365242 0.943421 0.000000
vt  0.361145 0.936324 0.000000
vt  0.359722 0.928254 0.000000
vt  0.361145 0.920184 0.000000
vt  0.365243 0.913087 0.000000
vt  0.371520 0.907819 0.000000
vt  0.379221 0.905016 0.000000
vt  0.387416 0.905016 0.000000
vt  0.395117 0.907819 0.000000
vt  0.401394 0.913087 0.000000
vt  0.405491 0.920184 0.000000
vt  0.406914 0.928254 0.000000
vt  0.405491 0.936325 0.000000
vt  0.401394 0.943422 0.000000
vt  0.395116 0.948689 0.000000
vt  0.387415 0.951492 0.000000
vt  0.021718 0.936319 0.000000
vt  0.020295 0.928248 0.000000
vt  0.021718 0.920178 0.000000
vt  0.452253 0.920184 0.000000
vt  0.453676 0.928255 0.000000
vt  0.452252 0.936325 0.000000
# 25 texture vertices

vn  0.459631 0.081045 0.884404
vn  0.404192 0.233361 0.884404
vn  0.300003 0.357530 0.884404
vn  0.109143 0.299867 0.947717
vn  0.000000 0.191701 0.981453
vn  -0.082087 0.225532 0.970771
vn  -0.300003 0.357529 0.884404
vn  -0.404193 0.233361 0.884404
vn  -0.459631 0.081045 0.884404
vn  -0.459631 -0.081045 0.884404
vn  -0.404193 -0.233361 0.884404
vn  -0.300003 -0.357529 0.884404
vn  -0.109143 -0.299868 0.947717
vn  -0.000000 -0.191701 0.981453
vn  0.082087 -0.225532 0.970771
vn  0.300003 -0.357529 0.884404
vn  0.404193 -0.233360 0.884404
vn  0.459631 -0.081046 0.884404
vn  -0.000000 -0.000000 1.000000
vn  0.000001 -0.000000 1.000000
vn  0.000001 -0.000000 1.000000
vn  0.000000 -0.000000 1.000000
vn  0.000000 0.000000 1.000000
vn  0.000000 0.000000 1.000000
vn  0.000000 0.000000 1.000000
# 25 vertex normals

g objobj对象03
s 1
f 1/1/1 2/2/2 19/3/19
f 2/2/2 3/4/3 19/3/19
f 3/4/3 4/5/4 19/3/19
f 4/5/4 5/6/5 19/3/19
f 5/6/5 6/7/6 19/3/19
f 6/7/6 7/8/7 19/3/19
f 7/8/7 8/9/8 19/3/19
f 8/9/8 9/10/9 19/3/19
f 9/10/9 10/11/10 19/3/19
f 10/11/10 11/12/11 19/3/19
f 11/12/11 12/13/12 19/3/19
f 12/13/12 13/14/13 19/3/19
f 13/14/13 14/15/14 19/3/19
f 14/15/14 15/16/15 19/3/19
f 15/16/15 16/17/16 19/3/19
f 16/17/16 17/18/17 19/3/19
f 17/18/17 18/19/18 19/3/19
f 18/19/18 1/1/1 19/3/19
f 5/6/5 4/5/4 20/20/20
f 20/20/20 21/21/21 5/6/5
f 6/7/6 5/6/5 21/21/21
f 21/21/21 22/22/22 6/7/6
f 14/15/14 13/14/13 23/23/23
f 23/23/23 24/24/24 14/15/14
f 15/16/15 14/15/14 24/24/24
f 24/24/24 25/25/25 15/16/15
# 26 faces

g
