# Max2Obj Version 4.0 Mar 10th, 2001
#
# object objminute to come ...
#
v  -357.500000 -227.500000 14.586300
v  357.500000 -227.500000 14.586300
v  -357.500000 227.500000 14.586300
v  357.500000 227.500000 14.586300
# 4 vertices

vt  0.000000 1.000000 0.000000
vt  0.000000 0.000000 0.000000
vt  1.000000 0.000000 0.000000
vt  1.000000 1.000000 0.000000
# 4 texture vertices

vn  0.000000 0.000000 1.000000
vn  0.000000 0.000000 1.000000
vn  0.000000 0.000000 1.000000
vn  0.000000 0.000000 1.000000
# 4 vertex normals

g objminute
s 2
f 3/1/3 1/2/1 2/3/2
f 3/1/3 2/3/2 4/4/4
# 2 faces

g
