# Max2Obj Version 4.0 Mar 10th, 2001
#
# object objcricle to come ...
#
v  205.169693 0.639000 -78.099701
v  203.552505 -25.065901 -78.099701
v  198.726303 -50.365398 -78.099701
v  190.767395 -74.860497 -78.099701
v  179.801102 -98.164902 -78.099701
v  166.000504 -119.911201 -78.099701
v  149.583298 -139.756302 -78.099701
v  130.808197 -157.387299 -78.099701
v  109.971298 -172.526093 -78.099701
v  87.401398 -184.934006 -78.099701
v  63.454399 -194.415298 -78.099701
v  38.507801 -200.820496 -78.099701
v  12.955200 -204.048492 -78.099701
v  -12.800500 -204.048492 -78.099701
v  -38.353100 -200.820496 -78.099701
v  -63.299599 -194.415298 -78.099701
v  -87.246696 -184.934006 -78.099701
v  -109.816597 -172.526093 -78.099701
v  -130.653397 -157.387207 -78.099701
v  -149.428497 -139.756195 -78.099701
v  -165.845795 -119.911102 -78.099701
v  -179.646301 -98.164803 -78.099701
v  -190.612595 -74.860397 -78.099701
v  -198.571503 -50.365200 -78.099701
v  -203.397598 -25.065701 -78.099701
v  -205.014801 0.639200 -78.099701
v  -203.397598 26.344101 -78.099701
v  -198.571396 51.643600 -78.099701
v  -190.612503 76.138702 -78.099701
v  -179.646194 99.443100 -78.099701
v  -165.845596 121.189400 -78.099701
v  -149.428207 141.034500 -78.099701
v  -130.653107 158.665497 -78.099701
v  -109.816299 173.804306 -78.099701
v  -87.246399 186.212097 -78.099701
v  -63.299301 195.693405 -78.099701
v  -38.352798 202.098602 -78.099701
v  -12.800100 205.326599 -78.099701
v  12.955600 205.326508 -78.099701
v  38.508202 202.098495 -78.099701
v  63.454700 195.693207 -78.099701
v  87.401802 186.211899 -78.099701
v  109.971603 173.803894 -78.099701
v  130.808395 158.665100 -78.099701
v  149.583496 141.034103 -78.099701
v  166.000793 121.188904 -78.099701
v  179.801300 99.442596 -78.099701
v  190.767502 76.138100 -78.099701
v  198.726395 51.643002 -78.099701
v  203.552505 26.343500 -78.099701
v  226.996597 0.639000 -78.099701
v  225.207306 -27.801500 -78.099701
v  219.867493 -55.793499 -78.099701
v  211.061600 -82.895500 -78.099701
v  198.928299 -108.680199 -78.099701
v  183.658905 -132.740799 -78.099701
v  165.494400 -154.697906 -78.099701
v  144.721207 -174.205200 -78.099701
v  121.666801 -190.955200 -78.099701
v  96.694901 -204.683594 -78.099701
v  70.199303 -215.173996 -78.099701
v  42.597801 -222.260895 -78.099701
v  14.325700 -225.832397 -78.099701
v  -14.171000 -225.832397 -78.099701
v  -42.443100 -222.260803 -78.099701
v  -70.044601 -215.173996 -78.099701
v  -96.540199 -204.683594 -78.099701
v  -121.512100 -190.955200 -78.099701
v  -144.566406 -174.205200 -78.099701
v  -165.339600 -154.697800 -78.099701
v  -183.504196 -132.740601 -78.099701
v  -198.773499 -108.680000 -78.099701
v  -210.906799 -82.895401 -78.099701
v  -219.712708 -55.793301 -78.099701
v  -225.052505 -27.801300 -78.099701
v  -226.841797 0.639200 -78.099701
v  -225.052399 29.079700 -78.099701
v  -219.712708 57.071701 -78.099701
v  -210.906601 84.173698 -78.099701
v  -198.773300 109.958397 -78.099701
v  -183.503906 134.018997 -78.099701
v  -165.339401 155.976105 -78.099701
v  -144.566101 175.483398 -78.099701
v  -121.511703 192.233398 -78.099701
v  -96.539803 205.961807 -78.099701
v  -70.044197 216.452103 -78.099701
v  -42.442699 223.538895 -78.099701
v  -14.170600 227.110504 -78.099701
v  14.326100 227.110397 -78.099701
v  42.598202 223.538803 -78.099701
v  70.199600 216.451904 -78.099701
v  96.695297 205.961502 -78.099701
v  121.667099 192.233002 -78.099701
v  144.721497 175.483002 -78.099701
v  165.494705 155.975601 -78.099701
v  183.659195 134.018402 -78.099701
v  198.928497 109.957802 -78.099701
v  211.061707 84.173103 -78.099701
v  219.867599 57.071098 -78.099701
v  225.207397 29.079100 -78.099701
# 100 vertices

vt  0.939400 0.554500 0.000000
vt  0.942900 0.499000 0.000000
vt  0.990000 0.499000 0.000000
vt  0.986100 0.560400 0.000000
vt  0.929000 0.609200 0.000000
vt  0.974600 0.620900 0.000000
vt  0.911800 0.662100 0.000000
vt  0.955600 0.679400 0.000000
vt  0.888100 0.712400 0.000000
vt  0.929400 0.735100 0.000000
vt  0.858300 0.759300 0.000000
vt  0.896400 0.787000 0.000000
vt  0.822800 0.802200 0.000000
vt  0.857200 0.834500 0.000000
vt  0.782300 0.840300 0.000000
vt  0.812300 0.876600 0.000000
vt  0.737300 0.873000 0.000000
vt  0.762600 0.912800 0.000000
vt  0.688600 0.899800 0.000000
vt  0.708600 0.942400 0.000000
vt  0.636900 0.920200 0.000000
vt  0.651400 0.965100 0.000000
vt  0.583000 0.934100 0.000000
vt  0.591800 0.980400 0.000000
vt  0.527800 0.941000 0.000000
vt  0.530800 0.988100 0.000000
vt  0.472200 0.941000 0.000000
vt  0.469200 0.988100 0.000000
vt  0.417000 0.934100 0.000000
vt  0.408200 0.980400 0.000000
vt  0.363100 0.920200 0.000000
vt  0.348600 0.965100 0.000000
vt  0.311400 0.899800 0.000000
vt  0.291400 0.942400 0.000000
vt  0.262700 0.873000 0.000000
vt  0.237400 0.912800 0.000000
vt  0.217700 0.840300 0.000000
vt  0.187700 0.876600 0.000000
vt  0.177200 0.802200 0.000000
vt  0.142800 0.834500 0.000000
vt  0.141700 0.759300 0.000000
vt  0.103600 0.787000 0.000000
vt  0.111900 0.712400 0.000000
vt  0.070600 0.735100 0.000000
vt  0.088200 0.662100 0.000000
vt  0.044400 0.679400 0.000000
vt  0.071000 0.609200 0.000000
vt  0.025400 0.620900 0.000000
vt  0.060600 0.554500 0.000000
vt  0.013900 0.560400 0.000000
vt  0.057100 0.499000 0.000000
vt  0.010000 0.499000 0.000000
vt  0.060600 0.443500 0.000000
vt  0.013900 0.437600 0.000000
vt  0.071000 0.388900 0.000000
vt  0.025400 0.377200 0.000000
vt  0.088200 0.336000 0.000000
vt  0.044400 0.318700 0.000000
vt  0.111900 0.285700 0.000000
vt  0.070600 0.263000 0.000000
vt  0.141700 0.238700 0.000000
vt  0.103600 0.211000 0.000000
vt  0.177200 0.195900 0.000000
vt  0.142800 0.163600 0.000000
vt  0.217700 0.157800 0.000000
vt  0.187700 0.121500 0.000000
vt  0.262700 0.125100 0.000000
vt  0.237400 0.085300 0.000000
vt  0.311400 0.098300 0.000000
vt  0.291400 0.055700 0.000000
vt  0.363100 0.077800 0.000000
vt  0.348600 0.033000 0.000000
vt  0.417000 0.064000 0.000000
vt  0.408200 0.017700 0.000000
vt  0.472200 0.057000 0.000000
vt  0.469200 0.010000 0.000000
vt  0.527800 0.057000 0.000000
vt  0.530800 0.010000 0.000000
vt  0.583000 0.064000 0.000000
vt  0.591800 0.017700 0.000000
vt  0.636900 0.077800 0.000000
vt  0.651400 0.033000 0.000000
vt  0.688600 0.098300 0.000000
vt  0.708600 0.055700 0.000000
vt  0.737300 0.125100 0.000000
vt  0.762600 0.085300 0.000000
vt  0.782300 0.157800 0.000000
vt  0.812300 0.121500 0.000000
vt  0.822800 0.195900 0.000000
vt  0.857200 0.163600 0.000000
vt  0.858300 0.238700 0.000000
vt  0.896400 0.211000 0.000000
vt  0.888100 0.285700 0.000000
vt  0.929400 0.263000 0.000000
vt  0.911800 0.336000 0.000000
vt  0.955600 0.318700 0.000000
vt  0.929000 0.388900 0.000000
vt  0.974600 0.377200 0.000000
vt  0.939400 0.443500 0.000000
vt  0.986100 0.437600 0.000000
# 100 texture vertices

vn  0.000000 0.000000 -1.000000
vn  0.000000 0.000000 -1.000000
vn  0.000000 0.000000 -1.000000
vn  0.000000 0.000000 -1.000000
vn  0.000000 0.000000 -1.000000
vn  0.000000 0.000000 -1.000000
vn  0.000000 0.000000 -1.000000
vn  0.000000 0.000000 -1.000000
vn  0.000000 0.000000 -1.000000
vn  0.000000 0.000000 -1.000000
vn  0.000000 0.000000 -1.000000
vn  0.000000 0.000000 -1.000000
vn  0.000000 0.000000 -1.000000
vn  0.000000 0.000000 -1.000000
vn  0.000000 0.000000 -1.000000
vn  0.000000 0.000000 -1.000000
vn  0.000000 0.000000 -1.000000
vn  0.000000 0.000000 -1.000000
vn  0.000000 0.000000 -1.000000
vn  0.000000 0.000000 -1.000000
vn  0.000000 0.000000 -1.000000
vn  0.000000 0.000000 -1.000000
vn  0.000000 0.000000 -1.000000
vn  0.000000 0.000000 -1.000000
vn  0.000000 0.000000 -1.000000
vn  0.000000 0.000000 -1.000000
vn  0.000000 0.000000 -1.000000
vn  0.000000 0.000000 -1.000000
vn  0.000000 0.000000 -1.000000
vn  0.000000 0.000000 -1.000000
vn  0.000000 0.000000 -1.000000
vn  0.000000 0.000000 -1.000000
vn  0.000000 0.000000 -1.000000
vn  0.000000 0.000000 -1.000000
vn  0.000000 0.000000 -1.000000
vn  0.000000 0.000000 -1.000000
vn  0.000000 0.000000 -1.000000
vn  0.000000 0.000000 -1.000000
vn  0.000000 0.000000 -1.000000
vn  0.000000 0.000000 -1.000000
vn  0.000000 0.000000 -1.000000
vn  0.000000 0.000000 -1.000000
vn  0.000000 0.000000 -1.000000
vn  0.000000 0.000000 -1.000000
vn  0.000000 0.000000 -1.000000
vn  0.000000 0.000000 -1.000000
vn  0.000000 0.000000 -1.000000
vn  0.000000 0.000000 -1.000000
vn  0.000000 0.000000 -1.000000
vn  0.000000 0.000000 -1.000000
vn  0.000000 0.000000 -1.000000
vn  0.000000 0.000000 -1.000000
vn  0.000000 0.000000 -1.000000
vn  0.000000 0.000000 -1.000000
vn  0.000000 0.000000 -1.000000
vn  0.000000 0.000000 -1.000000
vn  0.000000 0.000000 -1.000000
vn  0.000000 0.000000 -1.000000
vn  0.000000 0.000000 -1.000000
vn  0.000000 0.000000 -1.000000
vn  0.000000 0.000000 -1.000000
vn  0.000000 0.000000 -1.000000
vn  0.000000 0.000000 -1.000000
vn  0.000000 0.000000 -1.000000
vn  0.000000 0.000000 -1.000000
vn  0.000000 0.000000 -1.000000
vn  0.000000 0.000000 -1.000000
vn  0.000000 0.000000 -1.000000
vn  0.000000 0.000000 -1.000000
vn  0.000000 0.000000 -1.000000
vn  0.000000 0.000000 -1.000000
vn  0.000000 0.000000 -1.000000
vn  0.000000 0.000000 -1.000000
vn  0.000000 0.000000 -1.000000
vn  0.000000 0.000000 -1.000000
vn  0.000000 0.000000 -1.000000
vn  0.000000 0.000000 -1.000000
vn  0.000000 0.000000 -1.000000
vn  0.000000 0.000000 -1.000000
vn  0.000000 0.000000 -1.000000
vn  0.000000 0.000000 -1.000000
vn  0.000000 0.000000 -1.000000
vn  0.000000 0.000000 -1.000000
vn  0.000000 0.000000 -1.000000
vn  0.000000 0.000000 -1.000000
vn  0.000000 0.000000 -1.000000
vn  0.000000 0.000000 -1.000000
vn  0.000000 0.000000 -1.000000
vn  0.000000 0.000000 -1.000000
vn  0.000000 0.000000 -1.000000
vn  0.000000 0.000000 -1.000000
vn  0.000000 0.000000 -1.000000
vn  0.000000 0.000000 -1.000000
vn  0.000000 0.000000 -1.000000
vn  0.000000 0.000000 -1.000000
vn  0.000000 0.000000 -1.000000
vn  0.000000 0.000000 -1.000000
vn  0.000000 0.000000 -1.000000
vn  0.000000 0.000000 -1.000000
vn  0.000000 0.000000 -1.000000
# 100 vertex normals

g objcricle
s 0
f 2/1/2 1/2/1 51/3/51
f 2/1/2 51/3/51 52/4/52
f 3/5/3 2/1/2 52/4/52
f 3/5/3 52/4/52 53/6/53
f 4/7/4 3/5/3 53/6/53
f 4/7/4 53/6/53 54/8/54
f 5/9/5 4/7/4 54/8/54
f 5/9/5 54/8/54 55/10/55
f 6/11/6 5/9/5 55/10/55
f 6/11/6 55/10/55 56/12/56
f 7/13/7 6/11/6 56/12/56
f 7/13/7 56/12/56 57/14/57
f 8/15/8 7/13/7 57/14/57
f 8/15/8 57/14/57 58/16/58
f 9/17/9 8/15/8 58/16/58
f 9/17/9 58/16/58 59/18/59
f 10/19/10 9/17/9 59/18/59
f 10/19/10 59/18/59 60/20/60
f 11/21/11 10/19/10 60/20/60
f 11/21/11 60/20/60 61/22/61
f 12/23/12 11/21/11 61/22/61
f 12/23/12 61/22/61 62/24/62
f 13/25/13 12/23/12 62/24/62
f 13/25/13 62/24/62 63/26/63
f 14/27/14 13/25/13 63/26/63
f 14/27/14 63/26/63 64/28/64
f 15/29/15 14/27/14 64/28/64
f 15/29/15 64/28/64 65/30/65
f 16/31/16 15/29/15 65/30/65
f 16/31/16 65/30/65 66/32/66
f 17/33/17 16/31/16 66/32/66
f 17/33/17 66/32/66 67/34/67
f 18/35/18 17/33/17 67/34/67
f 18/35/18 67/34/67 68/36/68
f 19/37/19 18/35/18 68/36/68
f 19/37/19 68/36/68 69/38/69
f 20/39/20 19/37/19 69/38/69
f 20/39/20 69/38/69 70/40/70
f 21/41/21 20/39/20 70/40/70
f 21/41/21 70/40/70 71/42/71
f 22/43/22 21/41/21 71/42/71
f 22/43/22 71/42/71 72/44/72
f 23/45/23 22/43/22 72/44/72
f 23/45/23 72/44/72 73/46/73
f 24/47/24 23/45/23 73/46/73
f 24/47/24 73/46/73 74/48/74
f 25/49/25 24/47/24 74/48/74
f 25/49/25 74/48/74 75/50/75
f 26/51/26 25/49/25 75/50/75
f 26/51/26 75/50/75 76/52/76
f 27/53/27 26/51/26 76/52/76
f 27/53/27 76/52/76 77/54/77
f 28/55/28 27/53/27 77/54/77
f 28/55/28 77/54/77 78/56/78
f 29/57/29 28/55/28 78/56/78
f 29/57/29 78/56/78 79/58/79
f 30/59/30 29/57/29 79/58/79
f 30/59/30 79/58/79 80/60/80
f 31/61/31 30/59/30 80/60/80
f 31/61/31 80/60/80 81/62/81
f 32/63/32 31/61/31 81/62/81
f 32/63/32 81/62/81 82/64/82
f 33/65/33 32/63/32 82/64/82
f 33/65/33 82/64/82 83/66/83
f 34/67/34 33/65/33 83/66/83
f 34/67/34 83/66/83 84/68/84
f 35/69/35 34/67/34 84/68/84
f 35/69/35 84/68/84 85/70/85
f 36/71/36 35/69/35 85/70/85
f 36/71/36 85/70/85 86/72/86
f 37/73/37 36/71/36 86/72/86
f 37/73/37 86/72/86 87/74/87
f 38/75/38 37/73/37 87/74/87
f 38/75/38 87/74/87 88/76/88
f 39/77/39 38/75/38 88/76/88
f 39/77/39 88/76/88 89/78/89
f 40/79/40 39/77/39 89/78/89
f 40/79/40 89/78/89 90/80/90
f 41/81/41 40/79/40 90/80/90
f 41/81/41 90/80/90 91/82/91
f 42/83/42 41/81/41 91/82/91
f 42/83/42 91/82/91 92/84/92
f 43/85/43 42/83/42 92/84/92
f 43/85/43 92/84/92 93/86/93
f 44/87/44 43/85/43 93/86/93
f 44/87/44 93/86/93 94/88/94
f 45/89/45 44/87/44 94/88/94
f 45/89/45 94/88/94 95/90/95
f 46/91/46 45/89/45 95/90/95
f 46/91/46 95/90/95 96/92/96
f 47/93/47 46/91/46 96/92/96
f 47/93/47 96/92/96 97/94/97
f 48/95/48 47/93/47 97/94/97
f 48/95/48 97/94/97 98/96/98
f 49/97/49 48/95/48 98/96/98
f 49/97/49 98/96/98 99/98/99
f 50/99/50 49/97/49 99/98/99
f 50/99/50 99/98/99 100/100/100
f 1/2/1 50/99/50 100/100/100
f 1/2/1 100/100/100 51/3/51
f 3/5/3 4/7/4 5/9/5
f 3/5/3 5/9/5 1/2/1
f 5/9/5 6/11/6 7/13/7
f 5/9/5 7/13/7 9/17/9
f 7/13/7 8/15/8 9/17/9
f 9/17/9 10/19/10 11/21/11
f 9/17/9 11/21/11 13/25/13
f 11/21/11 12/23/12 13/25/13
f 5/9/5 9/17/9 13/25/13
f 5/9/5 13/25/13 21/41/21
f 13/25/13 14/27/14 15/29/15
f 13/25/13 15/29/15 17/33/17
f 15/29/15 16/31/16 17/33/17
f 17/33/17 18/35/18 19/37/19
f 17/33/17 19/37/19 21/41/21
f 19/37/19 20/39/20 21/41/21
f 13/25/13 17/33/17 21/41/21
f 21/41/21 22/43/22 23/45/23
f 21/41/21 23/45/23 25/49/25
f 23/45/23 24/47/24 25/49/25
f 25/49/25 26/51/26 27/53/27
f 25/49/25 27/53/27 29/57/29
f 27/53/27 28/55/28 29/57/29
f 21/41/21 25/49/25 29/57/29
f 21/41/21 29/57/29 37/73/37
f 29/57/29 30/59/30 31/61/31
f 29/57/29 31/61/31 33/65/33
f 31/61/31 32/63/32 33/65/33
f 33/65/33 34/67/34 35/69/35
f 33/65/33 35/69/35 37/73/37
f 35/69/35 36/71/36 37/73/37
f 29/57/29 33/65/33 37/73/37
f 5/9/5 21/41/21 37/73/37
f 5/9/5 37/73/37 45/89/45
f 37/73/37 38/75/38 39/77/39
f 37/73/37 39/77/39 41/81/41
f 39/77/39 40/79/40 41/81/41
f 41/81/41 42/83/42 43/85/43
f 41/81/41 43/85/43 45/89/45
f 43/85/43 44/87/44 45/89/45
f 37/73/37 41/81/41 45/89/45
f 45/89/45 46/91/46 47/93/47
f 45/89/45 47/93/47 49/97/49
f 47/93/47 48/95/48 49/97/49
f 5/9/5 45/89/45 49/97/49
f 5/9/5 49/97/49 1/2/1
f 49/97/49 50/99/50 1/2/1
f 2/1/2 3/5/3 1/2/1
# 148 faces

g
