# 3ds Max Wavefront OBJ Exporter v0.97b - (c)2007 guruware
# File Created: 14.01.2014 17:39:46

mtllib mod_number(day)_glass03.mtl

#
# object Object187
#

v  -45.0000 -59.0000 -4.9236
v  45.0000 -59.0000 -4.9236
v  -45.0000 59.0000 -4.9236
v  45.0000 59.0000 -4.9236
v  -45.0000 -59.0000 5.0764
v  45.0000 -59.0000 5.0764
v  -45.0000 59.0000 5.0764
v  45.0000 59.0000 5.0764
# 8 vertices

vn 0.0000 0.0000 -1.0000
vn 0.0000 0.0000 -1.0000
vn 0.0000 0.0000 -1.0000
vn 0.0000 0.0000 -1.0000
vn 0.0000 -0.0000 1.0000
vn 0.0000 -0.0000 1.0000
vn 0.0000 -0.0000 1.0000
vn 0.0000 -0.0000 1.0000
vn 0.0000 -1.0000 -0.0000
vn 0.0000 -1.0000 -0.0000
vn 0.0000 -1.0000 -0.0000
vn 0.0000 -1.0000 -0.0000
vn 1.0000 0.0000 -0.0000
vn 1.0000 0.0000 -0.0000
vn 1.0000 0.0000 -0.0000
vn 1.0000 0.0000 -0.0000
vn 0.0000 1.0000 -0.0000
vn 0.0000 1.0000 -0.0000
vn 0.0000 1.0000 -0.0000
vn 0.0000 1.0000 -0.0000
vn -1.0000 0.0000 -0.0000
vn -1.0000 0.0000 -0.0000
vn -1.0000 0.0000 -0.0000
vn -1.0000 0.0000 -0.0000
# 24 vertex normals

vt 0.2294 0.6846 0.0000
vt 0.0083 0.6846 0.0000
vt 0.2294 0.8625 0.0000
vt 0.0083 0.8625 0.0000
vt 0.4503 0.6846 0.0000
vt 0.6756 0.6846 0.0000
vt 0.4503 0.8625 0.0000
vt 0.6756 0.8625 0.0000
vt 0.4457 0.2138 0.0000
vt 0.6538 0.2138 0.0000
vt 0.4457 0.2385 0.0000
vt 0.6538 0.2385 0.0000
vt 0.4457 0.2138 0.0000
vt 0.6538 0.2138 0.0000
vt 0.4457 0.2385 0.0000
vt 0.6538 0.2385 0.0000
vt 0.4457 0.2138 0.0000
vt 0.6538 0.2138 0.0000
vt 0.4457 0.2385 0.0000
vt 0.6538 0.2385 0.0000
vt 0.4457 0.2138 0.0000
vt 0.6538 0.2138 0.0000
vt 0.4457 0.2385 0.0000
vt 0.6538 0.2385 0.0000
# 24 texture coords

g Object187
usemtl tex_calendar
s 2
f 1/1/1 3/3/2 4/4/3 2/2/4 
s 4
f 5/5/5 6/6/6 8/8/7 7/7/8 
s 8
f 1/9/9 2/10/10 6/12/11 5/11/12 
s 16
f 2/13/13 4/14/14 8/16/15 6/15/16 
s 32
f 4/17/17 3/18/18 7/20/19 8/19/20 
s 64
f 3/21/21 1/22/22 5/24/23 7/23/24 
# 6 polygons

