# 3ds Max Wavefront OBJ Exporter v0.97b - (c)2007 guruware
# File Created: 14.01.2014 17:35:29

mtllib mod_calendarUp01.mtl

#
# object mod_calendar007
#

v  -128.7947 -40.1071 -13.3035
v  128.7947 -40.1071 -13.3036
v  -132.3735 30.2624 -13.3035
v  132.3735 30.2624 -13.3036
v  -128.7947 -40.1071 9.1454
v  132.3735 -35.6143 9.1453
v  -132.3735 30.2624 9.1454
v  128.7947 34.7304 9.1453
v  -132.3735 -35.6143 -13.3035
v  132.3735 -35.6143 -13.3036
v  -128.7947 34.7304 -13.3035
v  128.7947 34.7304 -13.3036
v  -132.3735 -35.6143 9.1454
v  128.7947 -40.1071 9.1453
v  -128.7947 34.7304 9.1454
v  132.3735 30.2624 9.1453
v  -131.4789 -38.3795 -13.3035
v  131.4788 -38.3795 -13.3036
v  -131.4789 33.0275 -13.3035
v  131.4788 33.0275 -13.3036
v  -131.4789 -38.3795 9.1454
v  131.4788 -38.3795 9.1453
v  -131.4789 33.0275 9.1454
v  131.4788 33.0275 9.1453
v  -65.7368 34.7304 -13.3035
v  65.7368 34.7304 -13.3036
v  65.7368 34.7304 9.1454
v  -65.7368 34.7304 9.1454
v  61.5605 40.1071 -13.3036
v  -61.5606 40.1071 -13.3035
v  -61.5606 40.1071 9.1454
v  61.5605 40.1071 9.1454
v  64.6927 39.0315 -13.3036
v  -64.6927 39.0315 -13.3035
v  -64.6927 39.0315 9.1454
v  64.6927 39.0315 9.1454
# 36 vertices

vn -0.0000 -0.0000 -1.0000
vn -0.0000 0.0000 -1.0000
vn -0.0000 0.0000 -1.0000
vn -0.0000 -0.0000 -1.0000
vn 0.0000 -0.0000 1.0000
vn 0.0000 -0.0000 1.0000
vn 0.0000 -0.0000 1.0000
vn 0.0000 -0.0000 1.0000
vn 0.0000 -1.0000 -0.0000
vn 0.0000 -1.0000 -0.0000
vn 0.0000 -1.0000 -0.0000
vn 0.0000 -1.0000 -0.0000
vn 1.0000 0.0000 -0.0000
vn 1.0000 0.0000 -0.0000
vn 1.0000 0.0000 -0.0000
vn 1.0000 0.0000 -0.0000
vn 0.0000 1.0000 -0.0000
vn 0.0000 1.0000 -0.0000
vn 0.0000 1.0000 -0.0000
vn 0.0000 1.0000 -0.0000
vn -1.0000 0.0000 -0.0000
vn -1.0000 0.0000 -0.0000
vn -1.0000 0.0000 -0.0000
vn -1.0000 0.0000 -0.0000
vn 0.5412 -0.8409 -0.0000
vn 0.5412 -0.8409 -0.0000
vn 0.5412 -0.8409 -0.0000
vn 0.5412 -0.8409 -0.0000
vn -0.5412 -0.8409 -0.0000
vn -0.5412 -0.8409 -0.0000
vn -0.5412 -0.8409 -0.0000
vn -0.5412 -0.8409 -0.0000
vn 0.9514 0.3079 -0.0000
vn 0.9514 0.3079 -0.0000
vn 0.9514 0.3079 -0.0000
vn 0.9514 0.3079 -0.0000
vn -0.5357 0.8444 -0.0000
vn -0.5357 0.8444 -0.0000
vn -0.5357 0.8444 -0.0000
vn -0.5357 0.8444 -0.0000
vn 0.9514 -0.3079 -0.0000
vn 0.9514 -0.3079 -0.0000
vn 0.9514 -0.3079 -0.0000
vn 0.9514 -0.3079 -0.0000
vn -0.9514 -0.3078 -0.0000
vn -0.9514 -0.3078 -0.0000
vn -0.9514 -0.3078 -0.0000
vn -0.9514 -0.3078 -0.0000
vn 0.5357 0.8444 -0.0000
vn 0.5357 0.8444 -0.0000
vn 0.5357 0.8444 -0.0000
vn 0.5357 0.8444 -0.0000
vn -0.9514 0.3078 -0.0000
vn -0.9514 0.3078 -0.0000
vn -0.9514 0.3078 -0.0000
vn -0.9514 0.3078 -0.0000
vn -0.0000 0.0000 -1.0000
vn -0.0000 0.0000 -1.0000
vn -0.0000 0.0000 -1.0000
vn 0.0000 0.0000 1.0000
vn 0.0000 0.0000 1.0000
vn 0.0000 0.0000 1.0000
vn -0.0000 -0.0000 -1.0000
vn -0.0000 0.0000 -1.0000
vn -0.0000 0.0000 -1.0000
vn -0.0000 0.0000 -1.0000
vn 0.0000 -0.0000 1.0000
vn 0.0000 -0.0000 1.0000
vn 0.0000 0.0000 1.0000
vn 0.0000 -0.0000 1.0000
vn -0.0000 0.0000 -1.0000
vn -0.0000 -0.0000 -1.0000
vn -0.0000 0.0000 -1.0000
vn -0.0000 0.0000 -1.0000
vn 0.0000 0.0000 1.0000
vn 0.0000 -0.0000 1.0000
vn 0.0000 -0.0000 1.0000
vn 0.0000 -0.0000 1.0000
vn -0.0000 0.0000 -1.0000
vn -0.0000 0.0000 -1.0000
vn -0.0000 0.0000 -1.0000
vn -0.0000 -0.0000 -1.0000
vn 0.0000 0.0000 1.0000
vn 0.0000 -0.0000 1.0000
vn 0.0000 -0.0000 1.0000
vn 0.0000 0.0000 1.0000
vn 0.0000 1.0000 -0.0000
vn 0.0000 1.0000 -0.0000
vn 0.0000 1.0000 -0.0000
vn 0.0000 1.0000 -0.0000
vn 0.0000 1.0000 -0.0000
vn 0.0000 1.0000 -0.0000
vn 0.0000 1.0000 -0.0000
vn 0.0000 1.0000 -0.0000
vn -0.0000 0.0000 -1.0000
vn -0.0000 0.0000 -1.0000
vn -0.0000 0.0000 -1.0000
vn -0.0000 0.0000 -1.0000
vn 0.0000 -0.0000 1.0000
vn 0.0000 -0.0000 1.0000
vn 0.0000 -0.0000 1.0000
vn 0.0000 -0.0000 1.0000
vn -0.3248 0.9458 -0.0000
vn -0.3248 0.9458 -0.0000
vn -0.3248 0.9458 -0.0000
vn -0.3248 0.9458 -0.0000
vn 0.3248 0.9458 -0.0000
vn 0.3248 0.9458 -0.0000
vn 0.3248 0.9458 -0.0000
vn 0.3248 0.9458 -0.0000
vn -0.9718 0.2359 -0.0000
vn -0.9718 0.2359 -0.0000
vn -0.9718 0.2359 -0.0000
vn -0.9718 0.2359 -0.0000
vn 0.9718 0.2359 -0.0000
vn 0.9718 0.2359 -0.0000
vn 0.9718 0.2359 -0.0000
vn 0.9718 0.2359 -0.0000
vn -0.0000 0.0000 -1.0000
vn -0.0000 0.0000 -1.0000
vn -0.0000 0.0000 -1.0000
vn -0.0000 0.0000 -1.0000
vn 0.0000 0.0000 1.0000
vn 0.0000 0.0000 1.0000
vn 0.0000 0.0000 1.0000
vn 0.0000 0.0000 1.0000
vn 0.0000 -0.0000 1.0000
vn 0.0000 -0.0000 1.0000
vn 0.0000 -0.0000 1.0000
vn 0.0000 -0.0000 1.0000
vn 0.0000 -0.0000 1.0000
vn 0.0000 0.0000 1.0000
vn 0.0000 0.0000 1.0000
vn -0.0000 -0.0000 -1.0000
vn -0.0000 0.0000 -1.0000
vn -0.0000 0.0000 -1.0000
vn -0.0000 -0.0000 -1.0000
vn -0.0000 0.0000 -1.0000
vn -0.0000 0.0000 -1.0000
vn -0.0000 0.0000 -1.0000
# 140 vertex normals

vt 0.3682 0.2543 0.0000
vt 0.2975 0.2543 0.0000
vt 0.2975 0.2405 0.0000
vt 0.3682 0.2405 0.0000
vt 0.2957 0.2543 0.0000
vt 0.2957 0.2405 0.0000
vt 0.3700 0.2405 0.0000
vt 0.3700 0.2543 0.0000
vt 0.2141 0.2543 0.0000
vt 0.0662 0.2543 0.0000
vt 0.0662 0.2405 0.0000
vt 0.2141 0.2405 0.0000
vt 0.0647 0.2543 0.0000
vt 0.0647 0.2405 0.0000
vt 0.2157 0.2405 0.0000
vt 0.2157 0.2543 0.0000
vt 0.0632 0.2543 0.0000
vt 0.0264 0.2543 0.0000
vt 0.0264 0.2405 0.0000
vt 0.0632 0.2405 0.0000
vt 0.0249 0.2543 0.0000
vt 0.0249 0.2405 0.0000
vt 0.2539 0.2543 0.0000
vt 0.2172 0.2543 0.0000
vt 0.2172 0.2405 0.0000
vt 0.2539 0.2405 0.0000
vt 0.2555 0.2543 0.0000
vt 0.2555 0.2405 0.0000
vt 0.6510 0.2754 0.0000
vt 0.6575 0.2794 0.0000
vt 0.0235 0.2794 0.0000
vt 0.0299 0.2754 0.0000
vt 0.0213 0.2859 0.0000
vt 0.6597 0.2859 0.0000
vt 0.6597 0.4407 0.0000
vt 0.0213 0.4407 0.0000
vt 0.4990 0.4512 0.0000
vt 0.6575 0.4472 0.0000
vt 0.6511 0.4512 0.0000
vt 0.0235 0.4472 0.0000
vt 0.4101 0.2543 0.0000
vt 0.2570 0.2543 0.0000
vt 0.4086 0.2543 0.0000
vt 0.0235 0.2794 0.0000
vt 0.6575 0.2794 0.0000
vt 0.0299 0.2753 0.0000
vt 0.6511 0.2753 0.0000
vt 0.4990 0.4512 0.0000
vt 0.6575 0.4472 0.0000
vt 0.6510 0.4512 0.0000
vt 0.0235 0.4472 0.0000
vt 0.1820 0.4512 0.0000
vt 0.4965 0.4613 0.0000
vt 0.1845 0.4613 0.0000
vt 0.4889 0.4638 0.0000
vt 0.1921 0.4638 0.0000
vt 0.0299 0.4512 0.0000
vt 0.0213 0.4407 0.0000
vt 0.6597 0.4407 0.0000
vt 0.6597 0.2859 0.0000
vt 0.0213 0.2859 0.0000
vt 0.2570 0.2405 0.0000
vt 0.1820 0.4512 0.0000
vt 0.4965 0.4613 0.0000
vt 0.1845 0.4613 0.0000
vt 0.4889 0.4639 0.0000
vt 0.2932 0.2543 0.0000
vt 0.1920 0.4639 0.0000
vt 0.4086 0.2405 0.0000
vt 0.0299 0.4512 0.0000
vt 0.2932 0.2405 0.0000
vt 0.4101 0.2405 0.0000
vt 0.3724 0.2405 0.0000
vt 0.3724 0.2543 0.0000
# 74 texture coords

g mod_calendar007
usemtl tex_calendar
s 2
f 17/30/1 18/31/2 2/32/3 1/29/4 
s 4
f 6/34/5 16/35/6 7/36/7 13/33/8 
s 8
f 1/9/9 2/10/10 14/11/11 5/12/12 
s 16
f 10/17/13 4/18/14 16/19/15 6/20/16 
s 32
f 30/2/17 31/3/18 32/4/19 29/1/20 
s 64
f 3/23/21 9/24/22 13/25/23 7/26/24 
s off
f 22/14/25 14/11/26 2/10/27 18/13/28 
f 17/16/29 1/9/30 5/12/31 21/15/32 
f 24/22/33 16/19/34 4/18/35 20/21/36 
f 23/28/37 15/62/38 11/42/39 19/27/40 
f 6/20/41 22/14/42 18/13/43 10/17/44 
f 9/24/45 17/16/46 21/15/47 13/25/48 
f 8/69/49 24/72/50 20/41/51 12/43/52 
f 7/26/53 23/28/54 19/27/55 3/23/56 
s 2
f 25/48/57 19/49/58 11/50/59 
s 4
f 27/37/60 24/38/61 8/39/62 
s 2
f 4/58/63 3/59/64 19/49/65 20/51/66 
s 4
f 7/36/67 16/35/68 24/38/69 23/40/70 
s 2
f 3/59/71 4/58/72 10/61/73 9/60/74 
s 4
f 21/44/75 22/45/76 6/34/77 13/33/78 
s 2
f 9/60/79 10/61/80 18/31/81 17/30/82 
s 4
f 5/46/83 14/47/84 22/45/85 21/44/86 
s 32
f 11/42/87 15/62/88 28/71/89 25/67/90 
f 8/69/91 12/43/92 26/74/93 27/73/94 
s off
f 25/48/95 34/64/96 33/65/97 26/63/98 
f 27/37/99 36/53/100 35/54/101 28/52/102 
f 35/6/103 31/3/104 30/2/105 34/5/106 
f 33/8/107 29/1/108 32/4/109 36/7/110 
f 25/67/111 28/71/112 35/6/113 34/5/114 
f 27/73/115 26/74/116 33/8/117 36/7/118 
f 30/66/119 29/68/120 33/65/121 34/64/122 
f 32/55/123 31/56/124 35/54/125 36/53/126 
s 4
f 28/52/127 15/57/128 23/40/129 
f 28/52/130 23/40/131 24/38/132 27/37/133 
s 2
f 26/63/134 12/70/135 20/51/136 
f 26/63/137 20/51/138 19/49/139 25/48/140 
# 32 polygons - 4 triangles

